<?xml version="1.0" standalone="no"?>
<!DOCTYPE svg PUBLIC "-//W3C//DTD SVG 20010904//EN"
 "http://www.w3.org/TR/2001/REC-SVG-20010904/DTD/svg10.dtd">
<svg version="1.0" xmlns="http://www.w3.org/2000/svg"
 width="512.000000pt" height="512.000000pt" viewBox="0 0 512.000000 512.000000"
 preserveAspectRatio="xMidYMid meet">
<metadata>
Created by potrace 1.11, written by Peter Selinger 2001-2013
</metadata>
<g transform="translate(0.000000,512.000000) scale(0.100000,-0.100000)"
fill="#000000" stroke="none">
<path d="M1364 3731 c-54 -9 -143 -68 -144 -95 0 -5 -6 -17 -14 -25 -16 -18
-58 -117 -86 -205 -13 -36 -20 -90 -21 -141 -1 -46 -5 -89 -10 -96 -4 -7 -2
-21 4 -31 10 -15 9 -24 -4 -47 -12 -20 -14 -33 -7 -45 5 -10 7 -25 3 -34 -4
-9 -8 -48 -10 -87 -1 -38 -6 -78 -10 -89 -5 -11 -3 -21 6 -26 10 -7 6 -12 -14
-21 -19 -9 -24 -16 -17 -24 5 -7 7 -15 3 -18 -3 -4 2 -7 13 -7 15 -1 12 -6
-16 -30 -25 -22 -30 -30 -17 -30 26 0 10 -20 -16 -21 -20 -1 -20 -2 3 -8 22
-6 23 -8 7 -14 -10 -4 -15 -11 -12 -17 3 -5 0 -10 -7 -10 -9 0 -9 -3 2 -10 12
-8 11 -12 -8 -30 -24 -23 -29 -41 -9 -37 19 3 8 -45 -16 -65 -11 -10 -27 -18
-36 -18 -13 0 -13 -2 -2 -9 11 -7 9 -10 -8 -16 -12 -3 -19 -11 -16 -16 4 -5 0
-9 -8 -9 -8 0 -25 -9 -38 -20 -21 -17 -22 -19 -6 -20 10 0 15 -4 12 -10 -3 -5
-1 -10 6 -10 8 0 9 -3 0 -13 -6 -8 -8 -16 -5 -20 3 -3 -4 -8 -16 -12 -17 -5
-19 -10 -9 -21 8 -10 8 -14 0 -14 -6 0 -11 -6 -11 -13 0 -8 -9 -22 -19 -31
-11 -10 -23 -31 -26 -46 -3 -16 -14 -31 -23 -35 -14 -6 -13 -9 8 -17 l25 -9
-27 -17 c-16 -9 -28 -22 -28 -28 0 -6 -9 -23 -21 -38 -14 -18 -16 -26 -7 -26
8 0 6 -4 -5 -11 -19 -11 -13 -33 6 -23 7 3 2 -3 -10 -14 -13 -11 -23 -25 -23
-32 0 -6 -5 -8 -12 -4 -8 5 -8 1 1 -10 11 -13 12 -19 3 -25 -6 -3 -13 -24 -15
-45 -3 -21 -9 -41 -15 -45 -6 -4 -15 -27 -21 -51 -5 -24 -16 -49 -24 -55 -17
-12 -19 -26 -6 -41 6 -8 3 -13 -11 -17 -11 -3 -20 -9 -19 -14 4 -21 -5 -35
-52 -87 -39 -43 -47 -56 -33 -56 18 -1 18 -1 0 -15 -11 -8 -17 -18 -13 -21 4
-4 -1 -13 -11 -21 -16 -13 -15 -14 6 -8 25 7 31 -10 6 -19 -12 -4 -15 -15 -12
-36 4 -23 -1 -33 -19 -45 -21 -14 -22 -17 -8 -31 9 -9 23 -13 33 -10 15 5 15
5 1 -6 -8 -7 -24 -25 -33 -41 -10 -15 -27 -27 -37 -27 -17 0 -24 -11 -20 -34
1 -4 -4 -14 -10 -22 -9 -11 -5 -14 22 -15 19 0 28 -3 22 -6 -7 -2 -13 -11 -13
-19 0 -8 -10 -19 -22 -24 -13 -5 -17 -9 -10 -9 6 -1 12 -8 12 -16 0 -8 4 -15
9 -15 13 0 1 -42 -18 -61 -9 -8 -25 -21 -36 -27 -18 -10 -18 -11 9 -12 27 0
28 -1 12 -13 -16 -12 -16 -14 2 -35 l19 -22 421 0 420 0 16 40 c9 22 20 40 25
40 6 0 3 -16 -5 -36 -8 -20 -13 -39 -10 -42 3 -3 6 0 6 7 0 7 5 9 13 5 6 -4 9
-4 5 0 -4 5 2 25 13 44 25 48 24 52 -8 46 l-28 -5 30 26 c17 15 23 23 15 19
-8 -5 -21 -9 -27 -10 -7 -1 -24 -12 -39 -23 -15 -12 -31 -21 -37 -21 -5 0 -16
-8 -23 -18 -12 -15 -12 -14 -8 8 6 25 5 25 -13 5 -10 -12 -27 -24 -38 -29 -14
-5 -10 3 15 30 19 21 44 46 55 56 18 16 18 17 3 18 -22 0 -22 4 -2 35 9 14 12
25 8 25 -5 0 -2 5 6 11 13 9 13 10 0 6 -8 -2 -14 -10 -12 -16 2 -10 -11 -15
-31 -12 -4 0 -6 -4 -5 -10 2 -6 -5 -13 -16 -14 -10 -2 -32 -16 -49 -32 -23
-20 -19 -14 12 25 42 51 46 68 8 35 -19 -17 -20 -17 -9 3 6 11 18 26 26 34 9
7 16 24 16 39 l-1 26 -32 -35 c-18 -19 -29 -31 -25 -26 5 6 8 18 8 27 0 10 10
25 22 33 12 9 17 16 11 16 -7 0 -15 -5 -18 -10 -3 -5 -11 -10 -17 -10 -6 0 -6
6 2 15 19 22 4 31 -31 18 -30 -11 -29 -11 10 27 22 22 36 42 31 45 -5 3 -12
-1 -17 -8 -4 -8 -21 -22 -38 -33 -24 -16 -22 -11 14 26 23 24 52 62 64 83 12
21 29 52 39 69 9 16 20 33 24 36 4 4 3 0 -1 -8 -8 -13 -7 -13 8 -1 11 8 15 23
12 38 -2 14 4 48 15 76 10 29 18 60 17 69 0 16 -5 15 -33 -7 -18 -14 -36 -25
-41 -25 -14 0 80 80 117 100 19 11 31 19 26 20 -5 0 -34 -14 -65 -31 -51 -29
-54 -29 -35 -8 11 13 28 37 38 52 9 15 22 27 29 25 7 -1 22 3 35 10 13 8 22 9
22 3 0 -14 -32 -30 -54 -28 -11 1 -21 -4 -24 -12 -3 -9 0 -11 9 -6 7 5 23 10
35 11 12 1 52 18 90 37 38 19 82 37 98 41 15 4 26 9 24 11 -3 3 -29 -3 -59
-12 -30 -9 -57 -16 -61 -15 -5 1 -8 -2 -8 -7 0 -5 -8 -12 -17 -16 -15 -5 -16
-4 -5 6 17 18 15 34 -3 19 -12 -10 -15 -10 -15 3 0 8 6 18 13 20 6 3 -6 3 -28
1 l-40 -5 35 14 c19 8 52 22 74 31 47 21 60 14 16 -9 -18 -9 -30 -19 -27 -21
3 -3 19 2 36 10 34 18 45 20 37 7 -7 -10 51 -22 108 -22 21 0 36 -2 33 -5 -2
-3 -54 -20 -115 -39 -114 -35 -181 -64 -150 -65 9 0 19 4 22 9 3 5 16 11 28
14 22 6 22 5 4 -8 -11 -8 -15 -15 -9 -15 6 0 16 6 22 14 26 31 194 65 175 35
-4 -8 1 -9 17 -4 24 8 73 9 119 2 14 -2 19 -2 13 0 -27 9 -12 22 20 18 28 -5
28 -4 -8 8 -22 8 -43 12 -47 10 -5 -2 -8 1 -8 6 0 6 6 11 13 11 26 1 -20 18
-67 25 -51 7 -48 23 4 26 21 1 19 3 -12 13 -45 14 -59 26 -30 26 12 0 22 4 22
10 0 5 -6 7 -14 4 -8 -3 -17 0 -21 6 -3 6 -3 10 2 9 4 -1 22 -1 38 0 23 1 27
3 15 11 -22 15 -9 12 55 -10 68 -24 66 -23 63 -8 -2 6 15 15 37 20 88 18 90
19 74 29 -17 12 -3 8 31 -9 26 -14 80 -82 80 -101 0 -7 -10 -5 -25 5 -14 9
-28 14 -32 10 -3 -3 -2 -6 4 -6 6 0 27 -13 48 -30 49 -39 31 -38 -61 4 -40 19
-76 30 -79 25 -4 -5 -1 -9 5 -9 6 0 43 -16 83 -36 106 -52 146 -99 51 -59 -20
8 -41 12 -47 8 -5 -3 -7 -1 -3 5 6 10 -1 14 -57 26 -20 5 -27 3 -22 -5 5 -7 1
-9 -11 -5 -39 12 -113 23 -109 16 2 -4 24 -10 48 -13 49 -7 137 -35 151 -47 5
-5 -2 -7 -15 -4 -22 4 -22 4 -4 -5 11 -6 47 -22 80 -36 52 -23 48 -27 -12 -10
-10 3 2 -5 27 -16 25 -12 60 -24 79 -26 18 -2 46 -10 62 -18 36 -19 61 -19 37
-1 -29 22 -21 26 26 12 42 -13 45 -13 65 10 12 13 27 24 33 24 10 0 10 -2 0
-9 -9 -5 1 -8 28 -8 23 0 46 -5 53 -12 6 -6 19 -11 29 -11 11 0 15 -5 12 -14
-3 -7 2 -20 10 -29 8 -8 16 -32 18 -53 2 -29 11 -47 41 -76 22 -21 46 -38 55
-38 13 0 12 -3 -4 -15 -19 -15 -19 -15 1 -9 17 5 15 1 -7 -19 -24 -23 -30 -24
-75 -15 -26 5 -65 11 -86 13 -22 2 -51 6 -65 9 -15 3 -34 2 -42 -4 -13 -8 -13
-10 1 -10 9 0 42 -11 73 -25 31 -14 65 -25 76 -25 11 0 20 -4 20 -10 0 -12 86
-6 123 8 26 11 37 32 16 32 -21 0 3 20 70 59 82 48 102 84 98 176 -1 33 -6 65
-10 71 -4 7 0 11 11 10 12 -1 17 6 17 24 0 23 3 25 35 24 19 0 51 -10 70 -20
l35 -19 -28 -3 c-23 -3 -26 -6 -16 -18 15 -18 2 -18 -34 1 -23 12 -20 6 20
-40 27 -30 56 -57 66 -61 9 -3 17 -12 17 -20 0 -8 5 -14 10 -14 6 0 10 -7 10
-16 0 -8 14 -36 31 -60 27 -39 33 -43 47 -32 10 7 14 9 10 4 -6 -7 32 -60 38
-53 2 2 -4 22 -12 46 -12 36 -13 46 -2 52 7 5 9 9 3 9 -5 0 -16 12 -23 27 -9
20 -9 24 0 15 21 -21 31 -13 14 13 -14 21 -14 24 -1 19 14 -6 21 18 16 49 -1
5 7 6 18 2 26 -8 34 18 10 33 -10 7 -19 17 -19 23 0 8 4 8 14 0 10 -8 16 -9
21 -1 3 5 1 10 -4 10 -6 0 -11 6 -11 14 0 7 -7 19 -15 26 -8 7 -15 19 -15 28
0 8 -7 24 -17 34 -9 10 -11 18 -5 18 6 0 9 6 6 14 -6 15 21 29 39 20 7 -3 3 2
-8 11 -16 13 -17 19 -8 34 9 14 8 22 -4 34 -14 14 -13 17 5 33 17 14 19 21 9
33 -9 12 -9 13 1 7 6 -4 12 -2 12 3 0 6 -5 11 -12 11 -6 0 -4 6 7 13 17 13 17
14 -5 20 -12 3 -19 10 -15 16 4 8 13 8 28 0 18 -9 20 -9 10 1 -10 11 -9 16 5
27 14 11 15 12 1 7 -20 -6 -34 35 -17 51 8 7 9 5 5 -7 -3 -10 -2 -20 3 -23 5
-3 7 11 4 30 -3 28 -1 35 13 35 15 0 14 2 -3 15 -12 9 -14 14 -6 15 8 0 10 5
5 13 -13 21 -12 37 3 37 21 0 17 17 -6 23 -17 4 -18 8 -7 31 7 14 18 26 25 26
6 0 12 5 12 10 0 6 -6 10 -14 10 -21 0 -31 21 -15 31 11 6 10 9 -4 15 -21 8
-23 44 -2 44 8 0 15 5 15 10 0 6 -4 10 -10 10 -5 0 -10 11 -10 24 0 13 -6 27
-12 29 -8 4 -6 8 7 12 24 7 68 68 72 99 3 20 49 118 93 196 11 19 44 59 75 89
30 30 55 60 55 67 0 7 7 20 16 28 8 9 13 16 10 16 -3 0 19 49 49 110 59 118
67 158 35 190 -18 18 -18 21 -5 26 14 6 14 8 -1 25 -20 23 -75 41 -117 40 -66
-2 -161 -18 -189 -32 -9 -5 -40 -11 -70 -14 -29 -3 -66 -8 -83 -10 -16 -2 -57
-6 -89 -9 -33 -4 -65 -11 -72 -17 -8 -7 -14 -7 -18 0 -4 6 -16 7 -29 3 -43
-15 -106 -7 -128 16 -11 12 -24 20 -30 17 -5 -4 -9 2 -10 12 0 10 -3 13 -5 6
-4 -9 -15 -8 -46 3 -22 7 -44 11 -49 8 -5 -3 -12 2 -16 12 -5 15 -8 15 -17 2
-12 -16 -86 -20 -86 -4 0 5 -7 3 -15 -4 -12 -10 -15 -9 -15 6 -1 18 -1 18 -14
1 -14 -18 -15 -18 -25 0 -6 10 -11 13 -11 7 0 -7 -9 -14 -20 -17 -13 -3 -18
-1 -13 6 4 7 0 8 -11 4 -10 -4 -23 -4 -29 0 -7 5 -32 9 -57 10 -69 3 -137 10
-147 15 -4 2 -18 3 -30 2 -13 0 -23 3 -23 8 0 5 -4 7 -10 3 -15 -9 -60 6 -60
21 0 8 -7 14 -15 14 -8 0 -15 -7 -15 -15 0 -8 -4 -15 -10 -15 -5 0 -10 6 -10
14 0 9 -9 13 -26 11 -16 -1 -33 5 -45 18 -14 15 -19 17 -19 6 -1 -10 -3 -10
-11 3 -5 10 -30 26 -54 37 -25 11 -48 27 -51 35 -3 9 -9 16 -13 16 -3 0 -35
27 -71 60 -61 57 -77 65 -182 94 -7 2 -32 0 -54 -3z m-54 -61 c0 -5 -2 -10 -4
-10 -3 0 -8 5 -11 10 -3 6 -1 10 4 10 6 0 11 -4 11 -10z m1545 -1000 c-3 -5
-11 -10 -16 -10 -6 0 -7 5 -4 10 3 6 11 10 16 10 6 0 7 -4 4 -10z m60 -80 c-3
-5 -14 -10 -23 -9 -14 0 -13 2 3 9 27 11 27 11 20 0z m-72 -24 c-20 -12 -34
-14 -46 -8 -16 8 3 19 33 19 27 0 29 -2 13 -11z m90 -8 c-2 -5 4 -8 14 -9 13
0 12 -3 -7 -10 -36 -15 -82 -20 -75 -9 9 15 0 12 -41 -12 -21 -12 -35 -17 -31
-11 12 20 67 42 85 36 14 -6 15 -4 5 8 -9 12 -6 14 22 14 18 0 31 -3 28 -7z
m-1372 -25 c13 -16 12 -17 -3 -4 -10 7 -18 15 -18 17 0 8 8 3 21 -13z m1401
-27 c7 4 8 2 4 -4 -4 -6 -13 -9 -21 -6 -8 4 -12 11 -8 17 5 8 8 7 11 -1 2 -7
9 -9 14 -6z m-1382 -46 c-8 -5 -24 -9 -35 -9 -16 1 -16 2 5 9 35 11 48 11 30
0z m1390 6 c0 -11 -19 -15 -25 -6 -3 5 1 10 9 10 9 0 16 -2 16 -4z m58 -56
c23 0 5 -13 -21 -16 -12 0 -31 5 -42 13 -19 14 -18 15 14 9 18 -3 40 -6 49 -6z
m-35 -37 c-7 -2 -19 -2 -25 0 -7 3 -2 5 12 5 14 0 19 -2 13 -5z m-1743 -13
c-8 -5 -24 -9 -35 -9 l-20 0 20 9 c11 5 27 9 35 9 13 1 13 0 0 -9z m-35 -90
c-27 -12 -43 -12 -25 0 8 5 22 9 30 9 10 0 8 -3 -5 -9z m78 -17 c-7 -2 -21 -2
-30 0 -10 3 -4 5 12 5 17 0 24 -2 18 -5z m-17 -38 c-36 -19 -45 -19 -20 0 10
8 26 14 34 15 8 0 2 -7 -14 -15z m-26 -75 c-8 -5 -22 -10 -30 -10 -13 0 -13 1
0 10 8 5 22 10 30 10 13 0 13 -1 0 -10z m30 -34 c0 -2 -7 -7 -16 -10 -8 -3
-12 -2 -9 4 6 10 25 14 25 6z m-66 -51 c-10 -8 -23 -15 -28 -15 -6 0 -1 7 10
15 10 8 23 15 28 15 6 0 1 -7 -10 -15z m1701 -13 c-3 -3 -11 0 -18 7 -9 10 -8
11 6 5 10 -3 15 -9 12 -12z m-1260 -42 c-3 -5 -12 -10 -18 -10 -7 0 -6 4 3 10
19 12 23 12 15 0z m110 -10 c-13 -5 -15 -9 -7 -14 7 -4 17 -4 24 0 7 4 8 3 4
-4 -4 -7 -24 -12 -44 -11 -43 0 -127 16 -96 18 11 0 26 7 33 14 11 9 12 9 7 0
-5 -10 1 -11 26 -6 18 3 34 10 36 14 2 4 11 5 19 2 14 -6 14 -7 -2 -13z m1269
4 c3 -8 2 -12 -4 -9 -6 3 -10 10 -10 16 0 14 7 11 14 -7z m-4 -44 c0 -5 -2
-10 -4 -10 -3 0 -8 5 -11 10 -3 6 -1 10 4 10 6 0 11 -4 11 -10z m-1322 -7
c-10 -2 -26 -2 -35 0 -10 3 -2 5 17 5 19 0 27 -2 18 -5z m-454 -12 c-17 -4
-36 -11 -42 -15 -7 -4 -12 -3 -12 2 0 16 13 22 49 21 l36 -1 -31 -7z m1567
-59 c-8 -3 -8 -10 0 -24 9 -16 7 -20 -10 -25 -12 -3 -18 -10 -14 -20 5 -12 1
-14 -14 -9 -13 4 -25 0 -34 -10 -13 -16 -12 -16 9 -5 12 6 22 9 22 5 0 -8 -43
-43 -55 -44 -5 0 -4 5 3 12 6 6 8 18 4 27 -15 32 7 92 43 122 18 16 21 15 38
-4 11 -13 14 -23 8 -25z m-1461 14 c0 -3 -4 -8 -10 -11 -5 -3 -10 -1 -10 4 0
6 5 11 10 11 6 0 10 -2 10 -4z m-125 -16 c3 -5 0 -7 -8 -4 -8 3 -18 1 -22 -5
-3 -6 -11 -11 -18 -11 -6 0 -2 7 9 15 23 17 31 18 39 5z m12 -76 c0 -8 -14
-24 -31 -35 l-31 -21 26 24 c14 13 24 29 21 36 -2 7 0 12 6 12 5 0 9 -7 9 -16z
m360 0 c-3 -3 -12 -4 -19 -1 -8 3 -5 6 6 6 11 1 17 -2 13 -5z m1024 -53 c-8
-14 -4 -25 19 -51 17 -19 29 -35 27 -36 -3 -4 -89 17 -106 25 -20 10 -25 30
-8 27 8 -1 23 -8 33 -16 18 -15 18 -14 1 13 -10 16 -16 31 -13 35 3 3 6 0 6
-6 0 -7 5 -12 12 -12 6 0 8 3 5 7 -8 7 11 33 25 33 5 0 4 -8 -1 -19z m221 -8
c15 -18 -10 -17 -42 2 l-25 14 28 -2 c16 -1 33 -7 39 -14z m59 0 c13 -16 12
-17 -3 -4 -17 13 -22 21 -14 21 2 0 10 -8 17 -17z m-1741 3 c0 -2 -7 -7 -16
-10 -8 -3 -12 -2 -9 4 6 10 25 14 25 6z m1365 -26 c3 -5 1 -10 -4 -10 -6 0
-11 5 -11 10 0 6 2 10 4 10 3 0 8 -4 11 -10z m-1391 -64 c-9 -15 -19 -25 -21
-22 -5 5 30 56 35 51 2 -2 -4 -15 -14 -29z m956 8 c0 -2 -9 0 -20 6 -11 6 -20
13 -20 16 0 2 9 0 20 -6 11 -6 20 -13 20 -16z m825 -4 c2 -4 -7 -5 -20 -2 -14
2 -25 8 -25 12 0 10 38 1 45 -10z m-1715 -44 c0 -3 -4 -8 -10 -11 -5 -3 -10
-1 -10 4 0 6 5 11 10 11 6 0 10 -2 10 -4z m1665 -7 c11 -16 1 -19 -13 -3 -7 8
-8 14 -3 14 5 0 13 -5 16 -11z m-1795 -54 c-13 -14 -26 -23 -28 -20 -4 4 38
44 47 45 3 0 -6 -11 -19 -25z m100 -10 c-21 -25 -32 -17 -13 9 10 13 20 20 21
15 2 -5 -2 -16 -8 -24z m-17 -50 c-3 -9 -8 -14 -10 -11 -3 3 -2 9 2 15 9 16
15 13 8 -4z m-713 -195 c0 -5 -5 -10 -11 -10 -5 0 -7 5 -4 10 3 6 8 10 11 10
2 0 4 -4 4 -10z m540 -84 c0 -3 -4 -8 -10 -11 -5 -3 -10 -1 -10 4 0 6 5 11 10
11 6 0 10 -2 10 -4z m52 -75 c-9 -16 -18 -28 -21 -26 -4 5 27 55 34 55 2 0 -4
-13 -13 -29z m-14 -73 c-2 -5 -6 -8 -9 -6 -3 2 -13 -3 -22 -11 -18 -15 -24 -2
-7 15 13 13 42 14 38 2z m102 -42 c0 -2 -7 -7 -16 -10 -8 -3 -12 -2 -9 4 6 10
25 14 25 6z"/>
<path d="M3055 1860 c3 -5 8 -10 11 -10 2 0 4 5 4 10 0 6 -5 10 -11 10 -5 0
-7 -4 -4 -10z"/>
<path d="M1485 1735 c-40 -18 -16 -19 26 0 19 8 27 14 19 14 -8 0 -28 -6 -45
-14z"/>
<path d="M1738 1743 c7 -3 16 -2 19 1 4 3 -2 6 -13 5 -11 0 -14 -3 -6 -6z"/>
<path d="M1300 1689 c0 -5 5 -7 10 -4 6 3 10 8 10 11 0 2 -4 4 -10 4 -5 0 -10
-5 -10 -11z"/>
<path d="M1858 1673 c6 -2 18 -2 25 0 6 3 1 5 -13 5 -14 0 -19 -2 -12 -5z"/>
<path d="M1906 1669 c3 -5 -16 -10 -43 -11 -42 -1 -43 -2 -11 -5 20 -2 51 0
70 5 l33 8 -27 6 c-15 3 -25 1 -22 -3z"/>
<path d="M1928 1643 c7 -3 16 -2 19 1 4 3 -2 6 -13 5 -11 0 -14 -3 -6 -6z"/>
<path d="M1978 1633 c7 -3 16 -2 19 1 4 3 -2 6 -13 5 -11 0 -14 -3 -6 -6z"/>
<path d="M1913 1593 c11 -3 16 -11 13 -19 -6 -17 7 -26 27 -18 14 5 13 8 -1
25 -9 10 -26 18 -37 18 -18 -1 -18 -2 -2 -6z"/>
<path d="M2016 1506 c3 -9 11 -16 16 -16 13 0 5 23 -10 28 -7 2 -10 -2 -6 -12z"/>
<path d="M1256 1495 c-9 -26 -7 -32 5 -12 6 10 9 21 6 23 -2 3 -7 -2 -11 -11z"/>
<path d="M1208 1475 c-3 -11 -9 -29 -13 -40 -3 -11 1 -7 10 8 9 16 15 33 12
40 -2 6 -6 3 -9 -8z"/>
<path d="M1150 1399 c-6 -11 -10 -25 -8 -30 2 -5 8 4 15 21 13 34 9 40 -7 9z"/>
<path d="M2901 1404 c0 -11 3 -14 6 -6 3 7 2 16 -1 19 -3 4 -6 -2 -5 -13z"/>
<path d="M2950 1411 c0 -7 -6 -11 -13 -8 -9 3 -13 -2 -12 -15 1 -19 84 -103
93 -94 11 12 -10 37 -48 56 -23 12 -40 24 -37 27 3 2 15 -1 27 -7 18 -10 21
-10 14 2 -5 7 -9 19 -10 26 -3 19 -14 28 -14 13z"/>
<path d="M1176 1393 c-6 -14 -5 -15 5 -6 7 7 10 15 7 18 -3 3 -9 -2 -12 -12z"/>
<path d="M2985 1400 c-3 -5 1 -10 10 -10 9 0 13 5 10 10 -3 6 -8 10 -10 10 -2
0 -7 -4 -10 -10z"/>
<path d="M2044 1365 c-2 -20 1 -23 16 -15 9 5 20 6 24 3 3 -3 6 2 6 12 0 15
-3 16 -12 7 -9 -9 -14 -8 -22 4 -9 12 -11 10 -12 -11z"/>
<path d="M2021 1364 c0 -11 3 -14 6 -6 3 7 2 16 -1 19 -3 4 -6 -2 -5 -13z"/>
<path d="M2879 1342 c5 -9 10 -21 11 -27 1 -5 4 -12 7 -15 4 -3 3 1 -2 9 -5 9
-4 12 3 7 7 -4 12 -15 12 -25 0 -9 6 -23 13 -30 10 -10 9 -11 -5 -6 -10 4 -18
11 -18 16 0 4 -10 14 -22 20 -21 11 -22 11 -9 -4 8 -10 9 -17 3 -17 -6 0 -14
5 -17 10 -3 6 -11 10 -17 10 -6 0 -1 -11 12 -25 19 -20 20 -25 7 -25 -8 0 -22
7 -30 15 -16 16 -32 8 -18 -9 5 -6 10 -15 10 -21 1 -5 16 -16 34 -23 l32 -12
-35 5 c-19 3 -43 14 -55 24 -16 16 -22 17 -32 6 -13 -15 -7 -22 65 -69 55 -38
54 -44 -3 -10 -25 14 -45 22 -45 17 -1 -4 -11 3 -23 17 -12 14 -29 30 -37 35
-9 6 -8 2 3 -7 10 -10 15 -22 12 -29 -5 -7 -17 -1 -36 17 -16 15 -29 23 -29
17 0 -6 20 -29 45 -51 44 -39 44 -40 20 -44 -13 -3 -23 -2 -21 1 3 3 -2 14 -9
24 -9 12 -15 14 -20 7 -4 -6 -1 -18 6 -26 16 -20 4 -30 -17 -14 -17 15 17 -50
45 -84 12 -14 -1 -11 -44 14 -33 18 -55 27 -48 19 6 -8 12 -18 13 -24 1 -5 6
-9 12 -7 5 1 6 -3 2 -9 -5 -9 -2 -10 9 -6 10 4 16 2 14 -5 -2 -9 42 -47 99
-86 17 -11 16 -11 -4 -2 -12 6 -28 8 -34 4 -7 -4 -8 -3 -4 4 4 7 1 12 -7 12
-8 0 -25 11 -38 25 -27 28 -52 33 -42 9 5 -14 3 -15 -18 -4 -22 12 -22 10 5
-18 16 -17 33 -29 37 -26 5 3 6 -2 3 -11 -5 -12 -9 -13 -20 -4 -8 6 -14 8 -14
4 0 -4 -7 -1 -17 6 -15 13 -15 12 -5 -6 31 -53 34 -54 130 -53 64 0 90 4 85
12 -3 6 0 5 8 -1 16 -16 159 -18 159 -3 0 6 8 10 17 10 13 0 11 6 -10 28 -15
16 -29 43 -32 61 -2 18 -9 39 -16 48 -16 18 -21 43 -9 43 15 0 4 32 -16 48
-16 12 -16 14 -1 9 9 -4 24 -4 32 0 14 5 14 8 -2 25 -9 11 -13 19 -8 18 21 -4
27 0 18 13 -6 6 -13 20 -16 29 -5 13 -2 15 11 11 15 -6 15 -4 4 9 -11 14 -10
17 10 21 l23 4 -22 8 c-13 4 -23 11 -23 16 0 5 12 4 26 -2 42 -15 39 -5 -12
40 -44 38 -73 54 -59 31 3 -5 1 -10 -4 -10 -6 0 -11 4 -11 9 0 5 -7 11 -15 15
-12 4 -13 2 -6 -12z m-95 -138 c3 -8 2 -12 -4 -9 -6 3 -10 10 -10 16 0 14 7
11 14 -7z m-13 -61 c13 -16 12 -17 -3 -4 -17 13 -22 21 -14 21 2 0 10 -8 17
-17z m-46 -52 c3 -5 1 -12 -4 -15 -5 -3 -11 1 -15 9 -6 16 9 21 19 6z m51 -23
c28 -30 17 -30 -18 0 -16 13 -24 32 -15 32 2 0 16 -14 33 -32z m-55 -75 c13
-16 12 -17 -3 -4 -10 7 -18 15 -18 17 0 8 8 3 21 -13z"/>
<path d="M1135 1318 l-16 -33 21 24 c11 13 20 27 20 32 0 18 -10 8 -25 -23z"/>
<path d="M2096 1296 c-6 -19 -5 -31 4 -36 6 -4 11 -10 11 -14 -3 -24 1 -36 12
-36 9 0 11 12 9 41 -3 26 -7 37 -12 28 -6 -8 -10 -3 -12 17 l-4 29 -8 -29z"/>
<path d="M2185 1310 c3 -5 1 -10 -4 -10 -6 0 -9 -15 -8 -32 2 -19 8 -32 15
-30 7 1 12 -3 12 -8 0 -6 15 -41 32 -78 29 -59 33 -64 36 -39 2 15 -3 34 -12
43 -9 8 -17 22 -17 30 -1 8 -2 20 -3 27 -1 6 4 26 11 42 l14 30 -20 -25 c-15
-18 -21 -21 -22 -10 -1 8 -2 20 -4 25 -1 6 -3 18 -3 28 -1 9 -9 17 -18 17 -8
0 -12 -4 -9 -10z"/>
<path d="M1951 1309 c-1 -4 6 -20 14 -35 18 -34 19 -61 4 -66 -16 -5 17 -81
42 -96 12 -8 24 -10 27 -6 4 4 1 9 -5 11 -7 3 -13 14 -13 26 0 18 2 19 10 7 7
-11 9 2 7 42 -2 31 0 55 4 52 17 -10 17 15 0 30 -20 18 -38 7 -26 -16 4 -7 -2
-3 -13 10 -11 12 -25 22 -30 22 -6 0 -13 6 -15 13 -3 6 -6 9 -6 6z"/>
<path d="M1129 1263 c-13 -16 -12 -17 4 -4 16 13 21 21 13 21 -2 0 -10 -8 -17
-17z"/>
<path d="M1868 1275 c-7 -7 56 -140 71 -150 15 -9 13 7 -4 29 -8 11 -15 30
-15 42 0 13 -6 27 -13 31 -7 4 -17 18 -22 31 -6 13 -13 20 -17 17z"/>
<path d="M1390 1256 c0 -9 5 -16 10 -16 6 0 10 4 10 9 0 6 -4 13 -10 16 -5 3
-10 -1 -10 -9z"/>
<path d="M1604 1262 c-15 -10 -25 -42 -14 -42 5 0 7 -7 4 -15 -5 -13 6 -20 28
-16 4 0 5 -5 2 -13 -3 -8 -1 -17 5 -21 15 -8 14 36 -1 72 -6 15 -11 31 -10 36
2 9 0 9 -14 -1z"/>
<path d="M1765 1237 c2 -21 0 -35 -5 -32 -15 9 -18 -20 -3 -37 14 -15 13 -19
-2 -35 -17 -16 -17 -16 -11 7 3 14 3 19 0 13 -3 -7 -12 -13 -19 -13 -16 0 -10
-54 9 -85 20 -31 28 -73 15 -77 -7 -2 1 -12 17 -23 28 -18 29 -18 14 0 -14 17
-13 18 5 12 20 -7 20 -7 0 8 -14 11 -17 18 -8 23 9 6 7 15 -7 37 -22 33 -26
50 -10 40 6 -3 10 -1 10 5 0 6 5 8 10 5 13 -8 13 1 -1 27 -9 16 -8 22 2 29 11
7 12 12 2 29 -18 28 -16 32 7 18 11 -7 18 -19 15 -25 -2 -7 0 -13 5 -13 6 0
10 -7 10 -16 0 -14 2 -15 17 -3 10 8 14 9 10 2 -4 -6 -3 -14 3 -18 5 -3 10 3
10 14 0 11 -7 24 -16 29 -9 5 -15 11 -13 13 4 6 -25 49 -33 49 -4 0 -5 -8 -2
-17 5 -15 3 -15 -10 2 -9 11 -15 24 -12 31 2 6 0 17 -5 25 -6 9 -7 1 -4 -24z"/>
<path d="M1224 1238 l-19 -23 23 19 c21 18 27 26 19 26 -2 0 -12 -10 -23 -22z"/>
<path d="M1630 1257 c0 -2 5 -19 11 -36 9 -25 14 -30 23 -21 8 9 8 14 -1 17
-7 3 -13 11 -13 18 0 8 -4 17 -10 20 -5 3 -10 4 -10 2z"/>
<path d="M2138 1204 c-20 -39 -23 -64 -8 -64 11 0 14 13 10 45 -2 19 -1 19 12
1 13 -16 14 -15 10 18 -2 20 -5 36 -6 36 0 0 -9 -16 -18 -36z"/>
<path d="M1825 1220 c3 -5 8 -10 11 -10 2 0 4 5 4 10 0 6 -5 10 -11 10 -5 0
-7 -4 -4 -10z"/>
<path d="M1176 1198 c7 -10 34 -10 34 0 0 4 -9 8 -19 8 -11 0 -17 -4 -15 -8z"/>
<path d="M1875 1180 c0 -15 3 -26 6 -24 8 4 23 -26 20 -39 -1 -5 3 -6 8 -3 6
4 4 21 -6 44 -20 50 -28 56 -28 22z"/>
<path d="M2070 1187 c0 -14 5 -29 10 -32 7 -4 10 3 8 19 -5 35 -18 45 -18 13z"/>
<path d="M2187 1203 c-4 -3 -7 -11 -7 -17 0 -6 5 -5 12 2 6 6 9 14 7 17 -3 3
-9 2 -12 -2z"/>
<path d="M1137 1173 c-4 -3 -7 -11 -7 -17 0 -6 5 -5 12 2 6 6 9 14 7 17 -3 3
-9 2 -12 -2z"/>
<path d="M2208 1152 c2 -18 8 -29 13 -26 12 7 11 17 -4 39 -13 16 -14 15 -9
-13z"/>
<path d="M1532 1150 c3 -8 -4 -32 -15 -53 -11 -21 -19 -49 -19 -63 0 -17 -5
-23 -13 -20 -14 5 -33 -19 -53 -69 -11 -27 -11 -28 2 -12 13 17 15 17 18 2 5
-26 51 24 67 72 40 121 40 118 24 138 -9 12 -13 14 -11 5z"/>
<path d="M1570 1155 c0 -2 4 -14 9 -27 5 -13 12 -32 16 -43 5 -16 8 -17 15 -5
7 11 10 9 10 -12 0 -31 66 -168 80 -168 6 0 10 9 10 21 0 11 3 18 8 16 4 -3 8
17 9 44 2 37 -1 49 -12 49 -11 0 -12 -5 -5 -25 6 -16 6 -25 0 -25 -6 0 -10 5
-10 10 0 6 -3 9 -7 9 -22 -4 -31 3 -37 26 -4 14 -11 23 -16 20 -6 -3 -10 2
-10 11 0 16 2 15 22 -2 12 -10 18 -13 13 -5 -6 10 -4 13 7 9 12 -5 12 0 -4 30
-10 20 -25 40 -34 45 -14 8 -14 6 1 -17 10 -16 13 -26 6 -26 -6 0 -11 3 -11 8
0 9 -45 62 -54 62 -3 0 -6 -2 -6 -5z"/>
<path d="M2291 1134 c0 -11 3 -14 6 -6 3 7 2 16 -1 19 -3 4 -6 -2 -5 -13z"/>
<path d="M1681 1131 c-9 -6 -10 -11 -2 -15 6 -4 11 -16 11 -26 0 -10 5 -22 10
-25 7 -4 9 3 5 22 -4 15 -7 34 -7 41 -1 6 -2 12 -2 12 -1 0 -7 -4 -15 -9z"/>
<path d="M2162 1110 c0 -14 2 -19 5 -12 2 6 2 18 0 25 -3 6 -5 1 -5 -13z"/>
<path d="M1292 1097 c-12 -13 -42 -34 -67 -46 -28 -14 -42 -27 -39 -35 3 -8
-5 -21 -17 -30 -13 -8 -20 -19 -16 -22 10 -11 59 14 52 26 -3 6 -2 10 4 10 6
0 17 13 26 29 8 16 23 32 32 36 10 3 26 17 36 30 23 31 17 32 -11 2z"/>
<path d="M1557 1067 c-3 -35 0 -58 9 -72 11 -15 14 -16 14 -4 0 8 -6 21 -12
27 -10 10 -10 15 -1 20 13 8 15 70 3 77 -4 3 -10 -19 -13 -48z"/>
<path d="M1875 1111 c-3 -5 -2 -12 3 -15 5 -3 9 1 9 9 0 17 -3 19 -12 6z"/>
<path d="M1820 1106 c0 -2 8 -10 18 -17 15 -13 16 -12 3 4 -13 16 -21 21 -21
13z"/>
<path d="M1996 1097 c3 -10 9 -15 12 -12 3 3 0 11 -7 18 -10 9 -11 8 -5 -6z"/>
<path d="M2290 1101 c0 -6 5 -11 10 -11 6 0 8 -11 4 -26 -5 -19 -4 -25 5 -20
16 10 14 41 -4 56 -10 9 -15 9 -15 1z"/>
<path d="M1951 1079 c-1 -9 6 -22 14 -29 17 -14 21 -35 5 -25 -6 3 -7 -1 -4
-9 3 -9 10 -16 15 -16 5 0 9 -7 9 -15 0 -8 9 -19 19 -25 17 -9 19 -7 15 12 -3
13 -7 35 -8 50 -2 14 -10 33 -19 42 -14 15 -16 14 -20 -2 -3 -14 -6 -13 -15 8
-7 16 -11 19 -11 9z m57 -54 c-3 -3 -9 2 -12 12 -6 14 -5 15 5 6 7 -7 10 -15
7 -18z"/>
<path d="M2151 1054 c0 -11 3 -14 6 -6 3 7 2 16 -1 19 -3 4 -6 -2 -5 -13z"/>
<path d="M1250 1030 c-8 -5 -12 -12 -9 -15 4 -3 12 1 19 10 14 17 11 19 -10 5z"/>
<path d="M2610 1026 c0 -2 8 -10 18 -17 15 -13 16 -12 3 4 -13 16 -21 21 -21
13z"/>
<path d="M1527 995 c-2 -15 2 -40 10 -57 8 -16 12 -32 9 -35 -3 -4 -11 8 -17
25 -10 30 -29 44 -29 22 0 -6 -16 -24 -35 -41 -19 -17 -32 -35 -29 -40 3 -5
23 -8 44 -7 37 1 39 2 34 32 -2 17 -1 24 2 16 4 -8 13 -19 21 -23 7 -5 11 -12
9 -16 -3 -4 4 -8 15 -8 21 -2 26 13 7 19 -6 2 -12 13 -14 24 -5 40 -16 109
-19 112 -1 2 -5 -9 -8 -23z"/>
<path d="M2300 986 c0 -8 5 -18 10 -21 6 -3 10 1 10 9 0 8 -4 18 -10 21 -5 3
-10 -1 -10 -9z"/>
<path d="M2310 935 c0 -8 4 -15 10 -15 5 0 7 7 4 15 -4 8 -8 15 -10 15 -2 0
-4 -7 -4 -15z"/>
<path d="M2534 922 c17 -33 52 -62 74 -62 19 0 3 20 -51 62 l-39 32 16 -32z"/>
<path d="M1820 930 c0 -9 6 -22 13 -29 10 -11 10 -14 0 -18 -30 -11 -10 -22
35 -20 43 2 60 16 31 26 -7 2 -9 -1 -5 -8 4 -6 3 -11 -3 -11 -5 0 -15 8 -20
18 -6 9 -11 13 -11 7 0 -5 -9 4 -20 20 -12 18 -20 24 -20 15z"/>
<path d="M2000 904 c0 -8 5 -12 10 -9 6 3 10 1 10 -4 0 -6 5 -11 10 -11 12 0
9 22 -5 32 -16 12 -25 9 -25 -8z"/>
<path d="M1632 885 c13 -29 23 -32 32 -9 3 8 2 12 -4 9 -6 -3 -13 1 -16 9 -3
9 -10 16 -15 16 -5 0 -3 -11 3 -25z"/>
<path d="M2340 885 c0 -17 6 -25 17 -25 13 0 14 3 5 12 -15 15 -16 31 0 22 7
-4 8 -3 4 4 -12 20 -26 13 -26 -13z"/>
<path d="M1389 883 c-13 -16 -12 -17 4 -4 16 13 21 21 13 21 -2 0 -10 -8 -17
-17z"/>
<path d="M1930 895 c0 -5 5 -17 10 -25 5 -8 10 -10 10 -5 0 6 -5 17 -10 25 -5
8 -10 11 -10 5z"/>
<path d="M2160 875 c0 -8 4 -15 10 -15 5 0 7 7 4 15 -4 8 -8 15 -10 15 -2 0
-4 -7 -4 -15z"/>
<path d="M2456 875 c4 -8 11 -15 16 -15 6 0 5 6 -2 15 -7 8 -14 15 -16 15 -2
0 -1 -7 2 -15z"/>
</g>
</svg>
