<?xml version="1.0" standalone="no"?>
<!DOCTYPE svg PUBLIC "-//W3C//DTD SVG 20010904//EN"
 "http://www.w3.org/TR/2001/REC-SVG-20010904/DTD/svg10.dtd">
<svg version="1.0" xmlns="http://www.w3.org/2000/svg"
 width="512.000000pt" height="512.000000pt" viewBox="0 0 512.000000 512.000000"
 preserveAspectRatio="xMidYMid meet">
<metadata>
Created by potrace 1.11, written by Peter Selinger 2001-2013
</metadata>
<g transform="translate(0.000000,512.000000) scale(0.100000,-0.100000)"
fill="#000000" stroke="none">
<path d="M1795 5107 c-98 -29 -163 -83 -211 -177 l-29 -55 -2 -1095 -1 -1095
20 64 c33 107 83 170 168 211 25 12 51 25 59 29 12 6 15 141 16 912 1 497 5
911 9 920 4 9 17 21 29 26 13 5 462 9 1139 8 1081 0 1117 -1 1137 -19 l21 -19
0 -1128 0 -1128 -202 -1 c-112 0 -218 -2 -237 -5 -44 -6 -110 -38 -148 -73
-29 -26 -89 -112 -78 -112 3 0 0 -10 -6 -22 -9 -16 -13 -93 -14 -248 l-1 -225
-701 0 c-386 0 -703 -2 -706 -5 -3 -3 -7 -27 -11 -55 -3 -27 -11 -79 -16 -115
-5 -36 -10 -71 -10 -78 0 -10 156 -12 803 -10 l802 3 60 28 c52 24 102 70 365
335 321 323 343 351 359 451 4 25 6 579 6 1231 -1 1275 1 1218 -53 1304 -35
56 -79 94 -142 125 l-55 26 -1165 2 c-864 1 -1175 -2 -1205 -10z m2157 -2850
c-20 -21 -77 -79 -127 -130 l-90 -91 -3 119 c-2 96 0 122 12 130 8 7 63 11
130 11 l116 -1 -38 -38z"/>
<path d="M2455 4668 c-214 -28 -351 -212 -340 -457 9 -217 111 -360 289 -409
59 -17 193 -10 255 13 75 27 153 101 190 178 59 126 46 157 -79 187 -70 17
-94 3 -120 -67 -15 -42 -30 -65 -55 -82 -63 -43 -172 -26 -211 34 -57 88 -49
288 15 349 74 71 212 49 241 -38 6 -18 20 -42 31 -52 18 -16 27 -17 85 -7 118
20 138 56 90 158 -65 139 -219 215 -391 193z"/>
<path d="M3106 4645 c-13 -10 -20 -27 -20 -48 1 -27 94 -278 256 -690 18 -44
40 -84 52 -92 22 -13 126 -20 159 -9 20 6 49 66 99 199 16 43 35 93 43 110 25
57 174 444 181 469 4 19 0 31 -20 50 -22 23 -34 26 -91 26 -79 0 -98 -9 -115
-52 -7 -18 -19 -46 -25 -63 -7 -16 -18 -46 -25 -65 -7 -19 -16 -44 -21 -55 -4
-11 -25 -65 -45 -120 -20 -55 -41 -111 -46 -125 -9 -22 -15 -9 -60 115 -92
260 -120 330 -135 348 -21 23 -158 24 -187 2z"/>
<path d="M2153 3610 c-45 -27 -66 -64 -66 -114 0 -51 31 -99 76 -117 24 -10
210 -13 827 -13 l797 1 32 22 c83 59 78 176 -10 223 -32 17 -78 18 -829 18
-770 0 -796 -1 -827 -20z"/>
<path d="M2193 3149 c-49 -10 -74 -30 -93 -73 -31 -68 -6 -137 62 -172 22 -12
161 -14 820 -14 749 0 795 1 827 18 88 47 93 164 10 223 l-32 22 -783 1 c-431
1 -796 -2 -811 -5z"/>
<path d="M1823 2839 c-47 -14 -90 -62 -108 -122 -12 -40 -90 -356 -110 -447
-2 -8 -18 -71 -35 -140 -17 -69 -41 -161 -52 -205 -11 -44 -21 -84 -23 -90 -1
-5 -6 -25 -10 -44 -10 -41 -52 -69 -95 -63 -20 3 -44 19 -69 48 -120 137 -100
266 59 373 38 25 34 16 117 331 3 10 -3 16 -15 17 -17 1 -101 16 -162 28 -14
3 -74 8 -135 11 -183 11 -300 -20 -332 -87 -15 -30 -40 -183 -47 -289 -14
-184 -20 -456 -20 -845 1 -763 2 -771 58 -799 38 -19 576 -156 614 -156 50 0
77 36 111 150 18 58 36 116 41 130 5 14 26 84 48 155 108 349 124 403 139 440
8 22 15 42 14 45 0 6 38 137 50 170 5 14 11 43 14 65 3 22 10 69 15 105 14 98
20 141 26 185 2 22 7 51 9 65 2 14 11 79 20 145 9 66 18 131 20 145 19 132 34
237 39 277 2 15 7 52 11 82 4 30 9 63 11 75 18 89 9 155 -29 198 -43 50 -106
67 -174 47z"/>
<path d="M785 369 c-65 -20 -98 -123 -62 -191 23 -43 50 -55 197 -89 52 -12
157 -36 232 -55 161 -39 209 -38 241 3 61 75 53 174 -15 209 -22 12 -119 37
-258 69 -8 2 -46 11 -85 20 -38 9 -81 19 -94 21 -14 3 -27 7 -31 9 -16 10 -98
13 -125 4z"/>
</g>
</svg>
